<svg width="104" height="104" viewBox="0 0 104 104" fill="none" xmlns="http://www.w3.org/2000/svg">
<g clip-path="url(#clip0_74_712)">
<path d="M27.1778 93.2474C26.2792 93.2474 25.5528 92.521 25.5528 91.6224V90.1664C25.5496 90.1599 25.496 90.0039 25.4895 90.0006L15.5997 78.8661C14.5922 77.7368 14.0381 76.2759 14.0381 74.75V50.9551C14.0381 49.4764 14.6068 48.0821 15.6371 47.0356C16.669 45.9826 18.0518 45.3944 19.529 45.3944C22.5596 45.3944 25.0263 47.8888 25.0263 50.9551L25.0491 67.6439C25.0491 68.5393 24.3227 69.2689 23.4241 69.2689C22.5255 69.2689 21.7991 68.5425 21.7991 67.6471L21.7747 50.9584C21.7747 49.6828 20.7688 48.6444 19.5273 48.6444C18.9342 48.6444 18.3752 48.8816 17.956 49.3106C17.5205 49.751 17.2865 50.336 17.2865 50.9551V74.75C17.2865 75.4764 17.5465 76.1686 18.0258 76.7049L27.9188 87.8426C28.4843 88.465 28.8012 89.2938 28.8012 90.1664V91.6224C28.8028 92.521 28.0748 93.2474 27.1778 93.2474Z" fill="#F24949"/>
<path d="M41.961 93.2506C41.0656 93.2506 40.336 92.5242 40.336 91.6256V82.459C40.336 81.7992 40.076 81.1541 39.6194 80.6877L27.4124 68.2809C26.7656 67.6211 25.6411 67.6211 24.9911 68.2809C24.372 68.913 24.3054 69.9254 24.8351 70.6387L30.7485 77.6149C31.3286 78.3006 31.2441 79.326 30.5584 79.9061C29.8759 80.483 28.8472 80.4017 28.2671 79.716L22.2936 72.6602C20.7482 70.5965 20.9384 67.7657 22.6739 66.001C24.5556 64.0867 27.8479 64.0867 29.7296 66.001L41.9366 78.4079C42.9994 79.4901 43.5876 80.9282 43.5876 82.4574V91.624C43.586 92.5242 42.8596 93.2506 41.961 93.2506Z" fill="#F24949"/>
<path d="M45.7954 104H23.9814C23.0861 104 22.3564 103.274 22.3564 102.375V91.6256C22.3564 90.727 23.0861 90.0006 23.9814 90.0006H45.7954C46.6908 90.0006 47.4204 90.727 47.4204 91.6256V102.375C47.4204 103.274 46.6892 104 45.7954 104ZM25.6064 100.75H44.1704V93.2506H25.6064V100.75Z" fill="#F24949"/>
<path d="M76.8184 93.2474C75.9197 93.2474 75.1934 92.521 75.1934 91.6224V90.1664C75.1934 89.2937 75.5102 88.465 76.0887 87.828L85.9687 76.7097C86.4481 76.1702 86.7114 75.478 86.7114 74.7516V50.9551C86.7114 50.336 86.4741 49.7526 86.0451 49.3171C85.6194 48.8816 85.062 48.6444 84.4672 48.6444C83.229 48.6444 82.2199 49.6827 82.2199 50.9551L82.2004 67.6455C82.1971 68.5409 81.4707 69.2672 80.5754 69.2672C80.5721 69.2672 80.5721 69.2672 80.5721 69.2672C79.6735 69.2672 78.9471 68.5376 78.9504 67.6422L78.9699 50.9535C78.9699 47.8871 81.4366 45.3927 84.4672 45.3927C85.9427 45.3927 87.3305 45.9794 88.364 47.0405C89.3926 48.0821 89.9597 49.4747 89.9597 50.9535V74.75C89.9597 76.2759 89.4007 77.7367 88.3916 78.8694L78.4417 90.1647V91.6207C78.4434 92.521 77.717 93.2474 76.8184 93.2474Z" fill="#F24949"/>
<path d="M62.0361 93.2506C61.1375 93.2506 60.4111 92.5242 60.4111 91.6256V82.459C60.4111 80.9299 60.9978 79.4918 62.0654 78.4095L74.2691 66.0026C76.1509 64.0884 79.4431 64.0884 81.3249 66.0026C83.0604 67.7674 83.2521 70.5981 81.7653 72.5855L75.7316 79.7176C75.1515 80.4034 74.1229 80.4863 73.4404 79.9078C72.7546 79.3276 72.6718 78.3023 73.2503 77.6165L79.2238 70.5608C79.6966 69.9254 79.63 68.913 79.0076 68.2825C78.3609 67.6228 77.2364 67.6228 76.5864 68.2825L64.3826 80.6894C63.9228 81.1558 63.6628 81.8009 63.6628 82.4606V91.6273C63.6611 92.5243 62.9348 93.2506 62.0361 93.2506Z" fill="#F24949"/>
<path d="M80.0149 104H58.2041C57.3055 104 56.5791 103.274 56.5791 102.375V91.6256C56.5791 90.727 57.3055 90.0006 58.2041 90.0006H80.0149C80.9135 90.0006 81.6399 90.727 81.6399 91.6256V102.375C81.6399 103.274 80.9135 104 80.0149 104ZM59.8291 100.75H78.3899V93.2506H59.8291V100.75Z" fill="#F24949"/>
<path d="M52.0002 58.3992C51.771 58.3992 51.5468 58.3521 51.3372 58.2562L49.9023 57.6144C24.9748 46.4457 27.552 16.0371 27.6723 14.7485L27.9892 11.4026C28.0688 10.5527 28.7919 9.92062 29.6467 9.93037L32.9503 10.0132C33.2363 10.01 41.1614 9.89625 48.4105 2.847L50.8675 0.459873C51.4997 -0.152752 52.5023 -0.152752 53.1344 0.459873L55.5882 2.847C62.8714 9.93037 70.7592 10.01 71.0923 10.01L74.3764 9.88975C75.2783 9.81987 75.9852 10.5154 76.055 11.3815L76.328 14.7712C76.4483 16.0371 79.0223 46.4457 54.0948 57.6144L52.6632 58.2562C52.4503 58.3505 52.226 58.3992 52.0002 58.3992ZM31.0815 13.2161L30.9077 15.054C30.7972 16.2467 28.4068 44.421 51.2299 54.6504L52.0002 54.9932L52.7688 54.6471C75.5919 44.421 73.2015 16.2467 73.091 15.054L72.9415 13.1934L71.1508 13.26C71.1475 13.26 71.1443 13.26 71.1443 13.26C70.6145 13.26 61.4983 13.13 53.3197 5.17562L52.0002 3.89187L50.6774 5.17725C42.6385 12.9951 33.8912 13.2584 32.9194 13.2649L31.0815 13.2161Z" fill="#F24949"/>
<path d="M52.0002 58.3992C51.771 58.3992 51.5468 58.3521 51.3372 58.2562L49.9023 57.6144C24.9748 46.4457 27.552 16.0371 27.6723 14.7485L27.9892 11.4026C28.0688 10.5527 28.7919 9.92062 29.6467 9.93037L32.9503 10.0132C33.2363 10.01 41.1614 9.89625 48.4105 2.847L50.8675 0.459873C51.4997 -0.152752 52.5023 -0.152752 53.1344 0.459873L55.5882 2.847C62.8714 9.93037 70.7592 10.01 71.0923 10.01L74.3764 9.88975C75.2783 9.81987 75.9852 10.5154 76.055 11.3815L76.328 14.7712C76.4483 16.0371 79.0223 46.4457 54.0948 57.6144L52.6632 58.2562C52.4503 58.3505 52.226 58.3992 52.0002 58.3992ZM31.0815 13.2161L30.9077 15.054C30.7972 16.2467 28.4068 44.421 51.2299 54.6504L52.0002 54.9932L52.7688 54.6471C75.5919 44.421 73.2015 16.2467 73.091 15.054L72.9415 13.1934L71.1508 13.26C71.1475 13.26 71.1443 13.26 71.1443 13.26C70.6145 13.26 61.4983 13.13 53.3197 5.17562L52.0002 3.89187L50.6774 5.17725C42.6385 12.9951 33.8912 13.2584 32.9194 13.2649L31.0815 13.2161Z" fill="#F24949"/>
</g>
<defs>
<clipPath id="clip0_74_712">
<rect width="104" height="104" fill="white"/>
</clipPath>
</defs>
</svg>
