<svg width="103" height="103" viewBox="0 0 103 103" fill="none" xmlns="http://www.w3.org/2000/svg">
<path d="M71.0382 27.6169C71.6693 27.2951 72.277 26.9294 72.8568 26.5225C77.5562 23.2233 79.0046 17.1559 76.0755 13.0037C73.1465 8.85156 66.9665 8.17562 62.2671 11.507C57.5677 14.8384 55.1537 20.7287 52.5304 27.6008L71.0382 27.6169ZM14.002 49.0216H89.0149V87.1637C89.0149 88.8711 88.3367 90.5085 87.1294 91.7157C85.9222 92.923 84.2848 93.6012 82.5774 93.6012H20.4395C18.7321 93.6012 17.0947 92.923 15.8875 91.7157C14.6802 90.5085 14.002 88.8711 14.002 87.1637V49.0216Z" stroke="#F24949" stroke-width="3" stroke-linecap="round" stroke-linejoin="round"/>
<path d="M60.9146 49.0216H42.085V93.6012H60.9146V49.0216Z" stroke="#F24949" stroke-width="3" stroke-linecap="round" stroke-linejoin="round"/>
<path d="M31.9624 27.6169C31.3345 27.2986 30.7319 26.9328 30.1599 26.5225C25.4605 23.2233 23.996 17.1559 26.9412 13.0037C29.8863 8.85156 36.0502 8.17562 40.7657 11.507C45.4812 14.8384 47.863 20.7287 50.5024 27.6008L31.9624 27.6169Z" stroke="#F24949" stroke-width="3" stroke-linecap="round" stroke-linejoin="round"/>
<path d="M87.7109 27.6169H15.2891C12.6226 27.6169 10.4609 29.7785 10.4609 32.445V44.1934C10.4609 46.8599 12.6226 49.0216 15.2891 49.0216H87.7109C90.3774 49.0216 92.5391 46.8599 92.5391 44.1934V32.445C92.5391 29.7785 90.3774 27.6169 87.7109 27.6169Z" stroke="#F24949" stroke-width="3" stroke-linecap="round" stroke-linejoin="round"/>
<path d="M62.6366 27.6169H40.3789V49.0216H62.6366V27.6169Z" stroke="#F24949" stroke-width="3" stroke-linecap="round" stroke-linejoin="round"/>
</svg>
