<svg width="104" height="104" viewBox="0 0 104 104" fill="none" xmlns="http://www.w3.org/2000/svg">
<path d="M13.761 42.7407C13.1553 42.7406 12.5715 42.5149 12.1231 42.1078C11.6747 41.7006 11.394 41.1412 11.3356 40.5383C11.2772 39.9355 11.4453 39.3326 11.8071 38.8469C12.1689 38.3613 12.6986 38.0277 13.293 37.9112C25.0043 35.607 29.4633 29.9422 31.6441 14.599C31.686 14.2795 31.7909 13.9714 31.9527 13.6927C32.1145 13.4139 32.3299 13.1701 32.5865 12.9751C32.8432 12.7802 33.1359 12.6381 33.4479 12.5571C33.7598 12.476 34.0847 12.4576 34.4037 12.503C34.7228 12.5483 35.0297 12.6565 35.3067 12.8212C35.5837 12.9859 35.8253 13.2039 36.0175 13.4626C36.2097 13.7213 36.3487 14.0156 36.4264 14.3283C36.5041 14.6411 36.5191 14.9662 36.4703 15.2847C34.0166 32.5585 27.9878 39.9864 14.2338 42.6936C14.0782 42.7249 13.9198 42.7407 13.761 42.7407Z" fill="#F24949"/>
<path d="M54.3515 42.7408C54.1922 42.7407 54.0333 42.7249 53.877 42.6936C40.1247 39.9864 34.0975 32.5585 31.6438 15.2848C31.5951 14.9662 31.61 14.6411 31.6877 14.3283C31.7655 14.0156 31.9044 13.7213 32.0966 13.4626C32.2888 13.2039 32.5304 12.9859 32.8074 12.8212C33.0844 12.6565 33.3913 12.5483 33.7104 12.503C34.0294 12.4576 34.3543 12.476 34.6663 12.5571C34.9782 12.6381 35.2709 12.7802 35.5276 12.9751C35.7842 13.1701 35.9997 13.414 36.1614 13.6927C36.3232 13.9714 36.4281 14.2795 36.47 14.599C38.6492 29.9423 43.1098 35.6054 54.8212 37.9113C55.4155 38.0277 55.9452 38.3613 56.307 38.8469C56.6689 39.3326 56.8369 39.9355 56.7785 40.5384C56.7201 41.1412 56.4394 41.7006 55.991 42.1078C55.5427 42.5149 54.9588 42.7406 54.3532 42.7408H54.3515ZM34.0537 68.1021C33.4672 68.1013 32.9007 67.8891 32.458 67.5043C32.0154 67.1196 31.7263 66.5881 31.6438 66.0075C29.463 50.6659 25.004 44.9995 13.291 42.6936C12.9728 42.6362 12.6691 42.5161 12.3977 42.3401C12.1263 42.1642 11.8927 41.936 11.7104 41.6689C11.528 41.4018 11.4007 41.1011 11.3358 40.7842C11.2708 40.4674 11.2696 40.1408 11.3321 39.8235C11.3947 39.5062 11.5197 39.2045 11.7 38.936C11.8803 38.6675 12.1122 38.4376 12.3823 38.2596C12.6523 38.0816 12.955 37.9592 13.2729 37.8994C13.5907 37.8396 13.9173 37.8436 14.2335 37.9113C27.9875 40.6201 34.0147 48.048 36.4684 65.3218C36.5593 65.9618 36.3923 66.6116 36.004 67.1285C35.6158 67.6453 35.0381 67.9868 34.3982 68.0778C34.284 68.0937 34.1689 68.1018 34.0537 68.1021Z" fill="#F24949"/>
<path d="M34.06 68.1037C33.9442 68.1035 33.8285 68.0954 33.7138 68.0794C33.3968 68.0343 33.0917 67.9273 32.8161 67.7643C32.5404 67.6013 32.2996 67.3856 32.1073 67.1295C31.9151 66.8734 31.7752 66.582 31.6956 66.2718C31.616 65.9616 31.5983 65.6388 31.6436 65.3217C34.0973 48.048 40.1245 40.6217 53.8785 37.9112C54.1947 37.8436 54.5213 37.8395 54.8391 37.8994C55.1569 37.9592 55.4597 38.0816 55.7297 38.2596C55.9998 38.4376 56.2317 38.6675 56.412 38.936C56.5923 39.2045 56.7173 39.5062 56.7799 39.8235C56.8424 40.1408 56.8412 40.4674 56.7762 40.7842C56.7113 41.101 56.584 41.4018 56.4016 41.6689C56.2193 41.936 55.9857 42.1642 55.7143 42.3401C55.4429 42.5161 55.1392 42.6362 54.821 42.6936C43.1096 45.0011 38.6506 50.6659 36.4698 66.0075C36.3877 66.5884 36.0988 67.1203 35.6561 67.5053C35.2134 67.8904 34.6467 68.1029 34.06 68.1037ZM53.7615 71.7486C53.1573 71.7464 52.5754 71.5199 52.1288 71.1129C51.6821 70.706 51.4025 70.1477 51.3442 69.5463C51.2859 68.9449 51.4531 68.3433 51.8132 67.8582C52.1734 67.373 52.7009 67.039 53.2935 66.9207C62.127 65.182 65.4956 60.8806 67.1515 49.2229C67.2485 48.5883 67.592 48.0176 68.1073 47.6347C68.6227 47.2519 69.2682 47.0878 69.9038 47.1781C70.5394 47.2684 71.1137 47.6058 71.502 48.1171C71.8903 48.6283 72.0613 49.2721 71.9777 49.9086C70.0277 63.6334 65.2177 69.5419 54.236 71.7031C54.0797 71.7339 53.9207 71.7491 53.7615 71.7486Z" fill="#F24949"/>
<path d="M85.3682 71.7486C85.2089 71.749 85.05 71.7338 84.8937 71.7031C73.912 69.5419 69.102 63.635 67.152 49.9086C67.0684 49.2721 67.2393 48.6283 67.6276 48.1171C68.0159 47.6058 68.5902 47.2684 69.2258 47.1781C69.8614 47.0878 70.507 47.2519 71.0223 47.6347C71.5377 48.0176 71.8812 48.5883 71.9782 49.2229C73.6357 60.8806 77.0043 65.1804 85.8362 66.9191C86.4305 67.0356 86.9602 67.3691 87.3221 67.8548C87.6839 68.3404 87.852 68.9434 87.7936 69.5462C87.7352 70.149 87.4544 70.7085 87.0061 71.1156C86.5577 71.5228 85.9738 71.7484 85.3682 71.7486ZM69.5635 91.4956C68.9765 91.4951 68.4094 91.2828 67.9663 90.8977C67.5233 90.5126 67.2341 89.9806 67.152 89.3994C65.4945 77.7432 62.1275 73.4419 53.294 71.7031C52.9757 71.6457 52.672 71.5256 52.4006 71.3496C52.1293 71.1737 51.8956 70.9455 51.7133 70.6784C51.531 70.4113 51.4036 70.1105 51.3387 69.7937C51.2738 69.4769 51.2725 69.1503 51.3351 68.833C51.3976 68.5157 51.5227 68.214 51.7029 67.9455C51.8832 67.677 52.1151 67.4471 52.3852 67.2691C52.6552 67.0911 52.958 66.9687 53.2758 66.9088C53.5937 66.849 53.9202 66.8531 54.2365 66.9207C65.2215 69.082 70.0315 74.9905 71.9815 88.7152C72.0264 89.0324 72.0085 89.3553 71.9286 89.6654C71.8487 89.9756 71.7085 90.267 71.5159 90.523C71.3233 90.7789 71.0822 90.9944 70.8063 91.1571C70.5304 91.3198 70.2251 91.4266 69.908 91.4712C69.7938 91.4872 69.6787 91.4953 69.5635 91.4956Z" fill="#F24949"/>
<path d="M69.5694 91.4956C69.4537 91.4954 69.338 91.4873 69.2233 91.4713C68.9063 91.4264 68.6012 91.3195 68.3255 91.1567C68.0498 90.9939 67.8088 90.7784 67.6164 90.5225C67.424 90.2666 67.2839 89.9752 67.2041 89.6651C67.1244 89.355 67.1065 89.0323 67.1514 88.7153C69.1014 74.9889 73.9114 69.082 84.8932 66.9208C85.5227 66.8072 86.1716 66.9457 86.6999 67.3063C87.2282 67.6669 87.5936 68.2207 87.7173 68.8482C87.841 69.4758 87.713 70.1269 87.361 70.6609C87.009 71.195 86.4612 71.5693 85.8357 71.7031C77.0022 73.4419 73.6352 77.7433 71.9793 89.3994C71.8972 89.9803 71.6082 90.5121 71.1656 90.8972C70.7229 91.2823 70.1562 91.4948 69.5694 91.4956ZM69.0966 31.7606C68.4908 31.7608 67.9067 31.5355 67.458 31.1285C67.0093 30.7215 66.7283 30.162 66.6697 29.559C66.611 28.9561 66.779 28.353 67.1409 27.8671C67.5027 27.3813 68.0325 27.0476 68.6269 26.9311C74.1779 25.8391 76.1946 23.2326 77.2541 15.7723C77.296 15.4527 77.4009 15.1447 77.5627 14.8659C77.7244 14.5872 77.9399 14.3433 78.1965 14.1484C78.4532 13.9535 78.7459 13.8114 79.0578 13.7303C79.3698 13.6493 79.6947 13.6309 80.0137 13.6762C80.3328 13.7216 80.6397 13.8297 80.9167 13.9944C81.1937 14.1592 81.4353 14.3772 81.6275 14.6359C81.8197 14.8946 81.9587 15.1888 82.0364 15.5016C82.1141 15.8144 82.129 16.1394 82.0803 16.458C80.9591 24.3588 78.4013 29.978 69.5694 31.7151C69.4137 31.7457 69.2553 31.7609 69.0966 31.7606Z" fill="#F24949"/>
<path d="M90.2394 31.7606C90.0801 31.761 89.9212 31.7458 89.7649 31.7151C80.9363 29.9764 78.3785 24.3587 77.254 16.4564C77.2032 16.1367 77.2165 15.8102 77.2931 15.4958C77.3698 15.1813 77.5084 14.8853 77.7007 14.625C77.893 14.3647 78.1352 14.1453 78.4132 13.9795C78.6912 13.8138 78.9995 13.7051 79.3199 13.6598C79.6404 13.6145 79.9667 13.6335 80.2797 13.7156C80.5928 13.7977 80.8864 13.9414 81.1433 14.1382C81.4003 14.3349 81.6154 14.5809 81.7763 14.8618C81.9372 15.1426 82.0405 15.4527 82.0803 15.7739C83.1414 23.2326 85.158 25.8391 90.709 26.9311C91.3035 27.0476 91.8333 27.3813 92.1951 27.8671C92.557 28.3529 92.7249 28.9561 92.6663 29.559C92.6077 30.162 92.3266 30.7215 91.878 31.1285C91.4293 31.5355 90.8452 31.7608 90.2394 31.7606ZM79.6639 44.9702C79.0772 44.9694 78.5105 44.7569 78.0678 44.3718C77.6251 43.9868 77.3362 43.4549 77.254 42.874C76.1945 35.4152 74.1779 32.8055 68.6269 31.7151C67.9925 31.5901 67.4337 31.2183 67.0735 30.6813C66.7133 30.1443 66.5812 29.4863 66.7061 28.8519C66.8311 28.2175 67.203 27.6587 67.74 27.2985C68.2769 26.9383 68.935 26.8061 69.5694 26.9311C78.4013 28.6699 80.9574 34.2891 82.0819 42.1899C82.1269 42.5069 82.109 42.8297 82.0292 43.1397C81.9494 43.4498 81.8093 43.7412 81.6169 43.9971C81.4245 44.253 81.1836 44.4686 80.9079 44.6314C80.6321 44.7941 80.3271 44.901 80.01 44.9459C79.8953 44.9618 79.7797 44.9699 79.6639 44.9702Z" fill="#F24949"/>
<path d="M79.6701 44.9703C79.5543 44.9699 79.4387 44.9618 79.324 44.9459C78.684 44.8549 78.1063 44.5134 77.7181 43.9966C77.3299 43.4798 77.1628 42.8299 77.2537 42.1899C78.3782 34.2891 80.936 28.6699 89.7662 26.9311C90.0825 26.8635 90.409 26.8594 90.7269 26.9192C91.0447 26.979 91.3475 27.1015 91.6175 27.2795C91.8875 27.4575 92.1195 27.6874 92.2997 27.9559C92.48 28.2244 92.6051 28.5261 92.6676 28.8434C92.7302 29.1607 92.7289 29.4873 92.664 29.8041C92.599 30.1209 92.4717 30.4217 92.2894 30.6888C92.1071 30.9559 91.8734 31.1841 91.602 31.36C91.3307 31.5359 91.027 31.6561 90.7087 31.7135C85.1577 32.8055 83.1427 35.4153 82.08 42.874C81.9978 43.4549 81.7089 43.9868 81.2662 44.3718C80.8235 44.7569 80.2568 44.9694 79.6701 44.9703Z" fill="#F24949"/>
</svg>
