<svg width="101" height="59" viewBox="0 0 101 59" fill="none" xmlns="http://www.w3.org/2000/svg">
<path d="M22.0856 14.6682C21.4015 16.7736 21.9704 18.1749 23.8927 19.0801C26.1296 20.1335 28.5894 20.472 30.9291 21.1994C33.9045 22.1243 36.9417 22.8775 39.6762 24.4493C40.6362 25.0011 41.4754 25.7053 42.239 26.5006C42.4304 26.7 42.6997 26.8703 42.6552 27.2707C42.1026 27.5883 41.4576 27.731 40.8331 27.9137C36.6746 29.1308 32.5921 30.5576 28.5875 32.2169C26.3175 33.1574 24.1015 34.1994 21.9562 35.3936C21.7407 35.5136 21.5399 35.5774 21.3006 35.4925C18.3556 34.4475 15.4065 33.3879 12.9232 31.4196C10.1205 29.1982 8.60083 26.1591 7.95278 22.7296C6.69503 16.0734 7.9693 10.0364 12.7788 5.01698C14.8744 2.82991 17.4992 1.50978 20.4104 0.782095C24.3385 -0.199801 28.3046 -0.264969 32.2525 0.630904C37.4409 1.80829 41.2096 4.86755 43.7134 9.52919C44.3433 10.7018 44.8529 11.9269 45.336 13.1662C45.5716 13.7705 45.4865 14.0793 44.8194 14.3182C41.3402 15.5644 37.8743 16.8483 34.4139 18.146C33.7953 18.3779 33.5673 18.1909 33.3419 17.6084C31.748 13.4902 28.4931 12.2557 24.4097 12.9438C23.3904 13.1156 22.5859 13.6466 22.0856 14.6682Z" fill="#1B1B1B"/>
<path d="M70.1743 23.8409C80.3415 23.3109 90.247 24.4805 100.017 26.9397C100.358 27.0257 100.761 27.059 101 27.4298C100.655 27.6148 100.358 27.4102 100.073 27.3381C96.8406 26.5217 93.543 26.2182 90.2292 25.992C87.2282 25.7871 84.2252 25.8179 81.2219 25.7735C76.7901 25.7078 72.4147 26.3526 68.0188 26.7489C64.6534 27.0522 61.3113 27.5116 57.9957 28.1568C53.9775 28.9386 50.1263 30.2228 46.4873 32.1071C41.7186 34.5765 36.918 36.9909 32.6174 40.2616C28.8989 43.0897 25.5638 46.2967 22.6208 49.9339C20.6343 52.3888 18.8603 54.971 17.3372 57.7301C17.1264 58.112 16.8573 58.2489 16.4351 58.248C11.2629 58.2366 6.09072 58.2376 0.918534 58.2302C0.668581 58.2298 0.391006 58.2768 0.151855 57.9677C0.474615 57.1699 1.02002 56.4642 1.49052 55.7207C4.79611 50.497 8.52268 45.6183 13.2924 41.6259C16.0243 39.3392 19.0172 37.4066 22.1093 35.6594C26.5745 33.1363 31.3925 31.4051 36.2275 29.7439C41.7746 27.838 47.4126 26.2564 53.2023 25.2752C55.5894 24.8706 58.0074 24.692 60.4189 24.4635C63.6376 24.1584 66.8565 23.9129 70.1743 23.8409Z" fill="#1B1B1B"/>
<path d="M62.3599 27.798C65.7642 27.4223 69.0953 27.0752 72.4203 26.6779C73.2431 26.5796 73.5026 26.857 73.4947 27.652C73.4485 32.3029 73.6157 36.9572 73.3249 41.6039C73.1808 43.9064 72.9404 46.1984 72.357 48.4467C70.9904 53.7128 67.2069 57.1183 61.8437 57.92C57.7232 58.536 53.6773 58.1488 49.6508 57.2031C48.7385 56.9888 48.4173 56.576 48.4337 55.6047C48.4967 51.8775 48.4576 48.1487 48.4622 44.4204C48.4626 44.0796 48.3929 43.7259 48.6281 43.3049C49.5955 43.5286 50.5865 43.7808 51.5875 43.9836C52.9538 44.2603 54.3271 44.3309 55.7154 44.094C57.6867 43.7576 58.9941 42.2195 59.3741 39.8008C59.7039 37.7022 59.5361 35.5926 59.5741 33.4878C59.6006 32.0143 59.5985 30.5397 59.5752 29.0662C59.5657 28.4603 59.7774 28.1699 60.4064 28.1183C61.0366 28.0666 61.6587 27.9156 62.3599 27.798Z" fill="#1B1B1B"/>
<path d="M44.8064 33.3526C45.8895 32.8078 45.9873 32.823 46.239 33.9453C47.9545 41.5937 46.0906 50.0432 38.4291 54.9774C35.6563 56.7631 32.5767 57.6868 29.3247 58.045C25.9419 58.4175 22.5851 58.2335 19.2786 57.3824C18.1697 57.097 18.1128 56.9741 18.7021 56.0049C21.1465 51.9847 24.1295 48.3991 27.4979 45.1242C27.8332 44.7982 28.2216 44.6626 28.6636 44.6331C29.3381 44.5881 29.9647 44.3726 30.5648 44.0855C31.3018 43.7328 32.0245 43.1551 32.0255 42.3801C32.0274 40.8993 33.0954 40.3805 34.02 39.6991C37.3782 37.224 41.0789 35.327 44.8064 33.3526Z" fill="#1B1B1B"/>
<path d="M64.5093 23.7519C63.1043 23.8603 61.777 23.9307 60.4595 24.0854C59.7205 24.1722 59.5664 23.8603 59.5701 23.2153C59.5886 19.9813 59.5825 16.7471 59.5833 13.5129C59.5842 9.67239 59.6011 5.8317 59.569 1.99142C59.5621 1.16676 59.826 0.894542 60.6623 0.902513C64.5891 0.939922 68.5166 0.936153 72.4435 0.906049C73.2187 0.90011 73.5061 1.11495 73.5032 1.93131C73.4786 8.68825 73.4822 15.4454 73.5088 22.2023C73.5122 23.0486 73.249 23.3673 72.3744 23.3921C69.7786 23.4655 67.1853 23.6239 64.5093 23.7519Z" fill="#1B1B1B"/>
<path d="M12.9939 39.1514C14.2335 38.8764 15.4026 38.6204 16.5717 38.3644C16.6218 38.452 16.672 38.5397 16.7222 38.6273C13.2812 41.0275 10.061 43.6729 7.35561 47.0235C6.65838 46.1211 6.45067 45.1834 6.12762 44.3089C5.82866 43.4996 5.64856 42.6469 5.36078 41.8329C5.10005 41.0954 5.37181 40.7993 6.08616 40.6514C8.36958 40.1787 10.6449 39.667 12.9939 39.1514Z" fill="#1B1B1B"/>
</svg>
