<svg width="104" height="104" viewBox="0 0 104 104" fill="none" xmlns="http://www.w3.org/2000/svg">
<g clip-path="url(#clip0_74_710)">
<path d="M52 0C23.2938 0 0 23.2938 0 52C0 80.7062 23.2938 104 52 104C80.7062 104 104 80.7062 104 52C104 23.2938 80.7062 0 52 0ZM52 2.16667C79.534 2.16667 101.833 24.4638 101.833 52C101.833 79.5362 79.534 101.833 52 101.833C24.466 101.833 2.16667 79.5362 2.16667 52C2.16667 24.4638 24.466 2.16667 52 2.16667ZM47.9873 20.5292V20.5443C47.8109 20.5146 47.6308 20.5146 47.4543 20.5443C46.9928 20.6267 46.8433 20.7978 46.6635 20.943C46.4828 21.0928 46.3119 21.2542 46.1522 21.4262C45.8163 21.7793 45.4632 22.2018 45.1143 22.6178C44.7677 23.036 44.421 23.4498 44.1502 23.7488C44.0618 23.846 43.9701 23.9399 43.875 24.0305C43.7732 24.0305 43.654 24.0088 43.4893 23.9893C43.0928 23.9352 42.5685 23.842 42.0333 23.7488C41.5003 23.6557 40.9608 23.5603 40.4777 23.5083C40.2455 23.4804 40.0117 23.4674 39.7778 23.4693C39.5482 23.4693 39.3207 23.4455 38.9155 23.6817C38.5103 23.9178 38.428 24.1258 38.3088 24.3252C38.1918 24.5245 38.0943 24.726 37.9968 24.9513C37.8018 25.3977 37.6068 25.9177 37.4205 26.4312C37.2342 26.9447 37.0522 27.4517 36.9005 27.8287C36.8355 27.9868 36.7813 28.1038 36.7358 28.197C36.6097 28.2334 36.4826 28.2659 36.3545 28.2945C35.9645 28.3812 35.4402 28.4743 34.9072 28.5697C34.3742 28.665 33.8303 28.7647 33.358 28.8817C33.124 28.9402 32.9052 29.0008 32.6907 29.0853C32.474 29.1698 32.253 29.2153 31.954 29.575C31.655 29.9347 31.6507 30.16 31.6073 30.3875C31.564 30.615 31.538 30.8382 31.5207 31.0808C31.4903 31.5705 31.4903 32.1252 31.4882 32.6733C31.4882 33.2215 31.4882 33.761 31.4708 34.1683C31.4643 34.3417 31.4492 34.4652 31.4383 34.5692C31.356 34.6298 31.2563 34.7057 31.1133 34.7988C30.7732 35.0155 30.3073 35.2842 29.8372 35.5593C29.3692 35.8345 28.8968 36.1162 28.4938 36.3892C28.2986 36.5178 28.1118 36.6589 27.9348 36.8117C27.7615 36.9655 27.5708 37.0847 27.4148 37.5223C27.2567 37.96 27.3238 38.1745 27.3585 38.4042C27.3932 38.6317 27.4517 38.8505 27.5188 39.0845C27.6532 39.5547 27.8395 40.0768 28.0237 40.5903C28.2057 41.106 28.3877 41.613 28.509 41.9987C28.561 42.1655 28.5957 42.289 28.6195 42.3887C28.5632 42.4753 28.4895 42.5858 28.3812 42.7245C28.1363 43.0452 27.7962 43.4547 27.4473 43.875C27.1007 44.2953 26.7518 44.7243 26.4658 45.1187C26.3261 45.3066 26.1987 45.5035 26.0845 45.708C25.974 45.9117 25.8353 46.0893 25.8353 46.553C25.8353 47.0167 25.974 47.1965 26.0845 47.4002C26.195 47.6038 26.3228 47.7902 26.4658 47.9873C26.7518 48.3838 27.1007 48.8107 27.4473 49.2332C27.794 49.6535 28.1363 50.063 28.3833 50.3815C28.4873 50.5223 28.5632 50.6307 28.6195 50.7173C28.5881 50.8486 28.552 50.9787 28.5112 51.1073C28.3877 51.493 28.2078 52.0022 28.0237 52.5157C27.8395 53.0292 27.6553 53.5492 27.5188 54.0193C27.451 54.2439 27.3974 54.4726 27.3585 54.704C27.3238 54.9337 27.2567 55.146 27.4127 55.5837C27.5708 56.0213 27.7593 56.1427 27.9327 56.2943C28.106 56.4482 28.2902 56.5825 28.4917 56.719C28.8968 56.992 29.3692 57.2737 29.8372 57.5488C30.3073 57.824 30.7732 58.0905 31.1112 58.3072C31.2563 58.396 31.356 58.4718 31.4362 58.5347C31.4492 58.6387 31.4643 58.7665 31.4708 58.9398C31.4882 59.3472 31.4882 59.8867 31.4882 60.4348C31.4882 60.9808 31.4882 61.5312 31.5228 62.0208C31.538 62.2657 31.5618 62.491 31.6073 62.7185C31.6507 62.946 31.655 63.1735 31.954 63.531C32.253 63.8907 32.474 63.9383 32.6907 64.0228C32.9073 64.1073 33.124 64.1723 33.358 64.2308C33.8303 64.3478 34.3763 64.4475 34.9072 64.5428C35.4402 64.6382 35.9623 64.7313 36.3545 64.818C36.5192 64.8548 36.6383 64.8873 36.7358 64.9155C36.7813 65.0087 36.8355 65.1257 36.9005 65.2838C37.0002 65.5243 37.1193 65.8645 37.2363 66.1808L31.5142 75.9265C31.3967 76.1257 31.3413 76.3555 31.3551 76.5863C31.3688 76.8172 31.451 77.0387 31.5912 77.2227C31.7314 77.4066 31.9233 77.5446 32.1423 77.619C32.3612 77.6934 32.5974 77.7008 32.8207 77.6403L38.0553 76.2363L39.4615 81.4753C39.5221 81.6964 39.6467 81.8945 39.8196 82.045C39.9924 82.1955 40.2059 82.2916 40.4332 82.3212C40.6604 82.3509 40.8914 82.3127 41.097 82.2115C41.3027 82.1104 41.4739 81.9508 41.5892 81.7527L46.9885 72.4057C47.1033 72.4707 47.2398 72.5292 47.4543 72.566C47.918 72.6483 48.1173 72.54 48.3362 72.4642C48.5528 72.3883 48.7608 72.2973 48.9775 72.189C49.4152 71.9723 49.8918 71.6993 50.3642 71.4285C50.8322 71.1555 51.2937 70.8847 51.649 70.6962C51.7985 70.6182 51.9068 70.564 52 70.5228C52.0932 70.564 52.2037 70.6182 52.351 70.6962C52.7063 70.8847 53.1678 71.1555 53.638 71.4285C54.1082 71.6993 54.5848 71.9745 55.0225 72.189C55.2392 72.2973 55.445 72.3883 55.6638 72.4642C55.8827 72.54 56.082 72.6483 56.5457 72.566C56.7078 72.5404 56.8641 72.4861 57.0072 72.4057L62.4022 81.7527C62.5174 81.9508 62.6886 82.1104 62.8943 82.2115C63.1 82.3127 63.3309 82.3509 63.5582 82.3212C63.7855 82.2916 63.9989 82.1955 64.1718 82.045C64.3446 81.8945 64.4692 81.6964 64.5298 81.4753L65.936 76.2407L71.1663 77.6447C71.3893 77.7039 71.6248 77.6956 71.843 77.6208C72.0612 77.5459 72.2522 77.4078 72.3918 77.2241C72.5313 77.0405 72.6131 76.8194 72.6268 76.5892C72.6405 76.3589 72.5854 76.1297 72.4685 75.9308L66.7593 66.1982C66.8785 65.8732 66.9977 65.5287 67.0995 65.2838C67.1645 65.1257 67.2187 65.0087 67.2642 64.9155C67.3617 64.8873 67.4808 64.8548 67.6455 64.818C68.0355 64.7313 68.5598 64.6403 69.0928 64.5428C69.6258 64.4475 70.1697 64.3478 70.642 64.2308C70.8688 64.1763 71.0917 64.1068 71.3093 64.0228C71.526 63.9362 71.747 63.8907 72.046 63.531C72.345 63.1713 72.3493 62.946 72.3927 62.7185C72.436 62.491 72.462 62.2635 72.4793 62.0208C72.5097 61.5312 72.5097 60.9808 72.5118 60.4348C72.5118 59.8867 72.5118 59.3472 72.5292 58.9398C72.5357 58.7665 72.5508 58.6365 72.5617 58.5347C72.644 58.474 72.7437 58.3982 72.8867 58.305C73.2268 58.0883 73.6883 57.824 74.1585 57.5467C74.6265 57.2737 75.101 56.992 75.5018 56.719C75.7055 56.5825 75.8897 56.4482 76.0608 56.2943C76.2342 56.1427 76.4248 56.0213 76.5808 55.5837C76.739 55.146 76.6718 54.9337 76.6372 54.704C76.5983 54.4726 76.5447 54.2439 76.4768 54.0193C76.3241 53.513 76.1557 53.0116 75.972 52.5157C75.8022 52.049 75.6404 51.5795 75.4867 51.1073C75.4459 50.9787 75.4098 50.8486 75.3783 50.7173C75.4325 50.6307 75.5083 50.5223 75.6123 50.3837C75.8593 50.063 76.2017 49.6535 76.5483 49.2332C76.895 48.8128 77.2482 48.3838 77.5342 47.9873C77.6772 47.7923 77.805 47.6038 77.9155 47.4002C78.026 47.1965 78.1647 47.0188 78.1647 46.5552C78.1647 46.0893 78.026 45.9095 77.9155 45.708C77.8013 45.5035 77.674 45.3066 77.5342 45.1187C77.2482 44.7243 76.895 44.2953 76.5483 43.875C76.2017 43.4547 75.8593 43.0408 75.6123 42.7202C75.5298 42.6124 75.451 42.5019 75.3762 42.3887C75.4 42.2868 75.4347 42.1655 75.4845 41.9987C75.608 41.613 75.7878 41.106 75.972 40.5903C76.1562 40.0768 76.3403 39.5547 76.4768 39.0845C76.544 38.8505 76.6025 38.6317 76.6372 38.4042C76.6718 38.1745 76.739 37.96 76.583 37.5223C76.4248 37.0868 76.2363 36.9655 76.063 36.8117C75.8861 36.6587 75.6994 36.5176 75.504 36.3892C75.0642 36.0986 74.6155 35.8219 74.1585 35.5593C73.6883 35.2842 73.2268 35.0155 72.8888 34.7988C72.7777 34.7264 72.6693 34.6497 72.5638 34.5692C72.5508 34.4652 72.5357 34.3395 72.5292 34.1683C72.5118 33.761 72.5118 33.2215 72.5118 32.6733C72.5118 32.1252 72.5118 31.5705 72.4772 31.083C72.4638 30.8503 72.4356 30.6187 72.3927 30.3897C72.3493 30.1622 72.345 29.9347 72.046 29.575C71.747 29.2153 71.526 29.1698 71.3093 29.0853C71.0927 28.9987 70.876 28.9402 70.642 28.8817C70.129 28.7617 69.6123 28.6577 69.0928 28.5697C68.5598 28.4743 68.0377 28.379 67.6455 28.2945C67.5174 28.2659 67.3903 28.2334 67.2642 28.197C67.205 28.0762 67.1501 27.9533 67.0995 27.8287C66.9478 27.4517 66.7658 26.9447 66.5795 26.4312C66.4027 25.9321 66.2104 25.4386 66.0032 24.9513C65.9121 24.7354 65.8071 24.5255 65.689 24.323C65.572 24.128 65.4875 23.9157 65.0845 23.6817C64.6793 23.4433 64.4518 23.4737 64.2222 23.4693C63.9903 23.4693 63.765 23.491 63.5223 23.5083C63.0392 23.5603 62.4997 23.6557 61.9667 23.7467C61.4315 23.842 60.9072 23.9373 60.5107 23.9893C60.346 24.011 60.2268 24.024 60.125 24.0327C60.03 23.9413 59.9382 23.8466 59.8498 23.7488C59.522 23.3773 59.2006 23.0003 58.8857 22.6178C58.5368 22.2018 58.1793 21.7728 57.8457 21.4218C57.6868 21.2511 57.5167 21.0911 57.3365 20.943C57.1567 20.7978 57.0093 20.6223 56.5457 20.54C56.082 20.4577 55.8827 20.5617 55.6638 20.6375C55.4472 20.7133 55.2392 20.8108 55.0225 20.9192C54.5848 21.1358 54.1082 21.4067 53.6358 21.6775C53.1678 21.9527 52.7063 22.2235 52.351 22.412C52.2037 22.49 52.0932 22.5355 52 22.5767C51.9068 22.5333 51.7985 22.49 51.649 22.412C51.2937 22.2235 50.8322 21.9527 50.362 21.6797C49.9085 21.4111 49.4468 21.1568 48.9775 20.917C48.7699 20.8102 48.5557 20.7169 48.3362 20.6375C48.2278 20.6007 48.1217 20.5552 47.9873 20.5292ZM47.853 22.8128C47.9115 22.8388 47.9462 22.8475 48.0177 22.8822C48.3578 23.0512 48.8107 23.3068 49.2743 23.5755C49.738 23.8442 50.2103 24.1215 50.6328 24.3447C50.8452 24.4573 51.0445 24.5613 51.2417 24.6415C51.4432 24.7238 51.6035 24.8192 52 24.8192C52.3965 24.8192 52.5525 24.7238 52.754 24.6415C52.9608 24.5522 53.1633 24.4532 53.3607 24.3447C53.7853 24.1215 54.262 23.8442 54.7257 23.5755C55.1893 23.3068 55.6422 23.049 55.9823 22.8822C56.0538 22.8453 56.0885 22.8388 56.147 22.8128C56.1947 22.8583 56.2228 22.8778 56.277 22.9363C56.5413 23.2115 56.8837 23.6167 57.226 24.0283C57.5727 24.44 57.9193 24.8647 58.2422 25.22C58.4025 25.3998 58.552 25.558 58.7123 25.7032C58.8705 25.8505 58.9875 25.9935 59.358 26.1322C59.7307 26.2687 59.9127 26.234 60.1293 26.2253C60.346 26.2253 60.5648 26.1928 60.801 26.1603C61.2777 26.0953 61.8172 25.9978 62.3415 25.9068C62.868 25.8137 63.3837 25.727 63.7607 25.6858C63.8408 25.6858 63.8733 25.688 63.9383 25.6642L64.0185 25.8353C64.1702 26.1863 64.3587 26.6825 64.5428 27.1895C64.727 27.6965 64.9112 28.2165 65.0932 28.6628C65.1842 28.8838 65.273 29.0875 65.3727 29.2803C65.4723 29.4732 65.533 29.6465 65.8342 29.9022C66.1353 30.1578 66.3173 30.186 66.5232 30.2532C66.729 30.3182 66.9413 30.3745 67.1732 30.4265C67.6433 30.5305 68.1807 30.6215 68.7072 30.719C69.2337 30.8143 69.7472 30.9075 70.1155 30.9985C70.1978 31.0202 70.2303 31.0353 70.2932 31.0527C70.3018 31.1198 70.3083 31.1567 70.3148 31.2433C70.3408 31.6268 70.343 32.1533 70.3452 32.695C70.3452 33.2345 70.3452 33.787 70.3668 34.268C70.3755 34.5107 70.3885 34.7317 70.4167 34.9462C70.4448 35.1607 70.4448 35.3448 70.642 35.6872C70.837 36.0273 70.9952 36.1205 71.1663 36.2527C71.3353 36.387 71.5173 36.5127 71.721 36.6427C72.124 36.9027 72.6007 37.1757 73.0622 37.4465C73.5237 37.7173 73.9722 37.9882 74.2885 38.2005C74.36 38.2482 74.386 38.2742 74.4402 38.3153C74.425 38.3803 74.4185 38.4193 74.3947 38.5038C74.2885 38.8722 74.113 39.3727 73.9332 39.8797C73.7512 40.3867 73.5648 40.9023 73.4218 41.3617C73.351 41.5776 73.2903 41.7966 73.2398 42.0182C73.1943 42.2305 73.1315 42.4017 73.1965 42.7873C73.2637 43.173 73.3828 43.3138 73.4977 43.498C73.6125 43.6822 73.7447 43.8663 73.892 44.057C74.1823 44.4383 74.5333 44.8587 74.8778 45.2703C75.2202 45.6863 75.5538 46.0958 75.7792 46.4057C75.8312 46.4772 75.8507 46.514 75.8875 46.5703C75.8507 46.6288 75.8312 46.6635 75.7792 46.735C75.5538 47.0448 75.2202 47.45 74.8778 47.866C74.5333 48.2798 74.1845 48.7023 73.892 49.0837C73.7447 49.2743 73.6103 49.452 73.4977 49.634C73.3828 49.8182 73.2637 49.9677 73.1965 50.3533C73.1315 50.739 73.1943 50.9123 73.2398 51.1247C73.2832 51.337 73.3482 51.545 73.4218 51.7747C73.567 52.234 73.7512 52.754 73.9332 53.261C74.1152 53.768 74.2885 54.2685 74.3947 54.6368C74.4185 54.7213 74.425 54.7603 74.4402 54.8275C74.386 54.8687 74.36 54.8925 74.2885 54.9402C73.8873 55.2036 73.4783 55.4551 73.0622 55.6942C72.6007 55.965 72.124 56.2402 71.7188 56.498C71.5173 56.628 71.3353 56.7493 71.1663 56.8837C70.9952 57.018 70.837 57.109 70.642 57.4513C70.447 57.7915 70.447 57.9713 70.4167 58.188C70.3895 58.4139 70.3729 58.6409 70.3668 58.8683C70.3452 59.3493 70.3452 59.8975 70.3452 60.4392C70.3452 60.9787 70.3408 61.5052 70.3148 61.8908C70.3083 61.9775 70.3018 62.0143 70.2932 62.0858C70.2282 62.1075 70.1978 62.1183 70.1155 62.14C69.7472 62.231 69.2337 62.3285 68.7072 62.4217C68.1807 62.5192 67.6433 62.6123 67.1753 62.7142C66.9561 62.76 66.7392 62.8164 66.5253 62.8832C66.3173 62.9503 66.1353 62.9828 65.832 63.2407C65.533 63.4942 65.4723 63.6697 65.3727 63.8625C65.27 64.0639 65.1767 64.27 65.0932 64.48C64.9112 64.9263 64.727 65.4463 64.5428 65.9533C64.3587 66.4582 64.1723 66.95 64.0185 67.301C63.9838 67.3812 63.9643 67.4093 63.9318 67.4722C63.8712 67.4722 63.8387 67.4722 63.7585 67.4505C63.2841 67.3906 62.8116 67.3169 62.3415 67.2295C61.8172 67.1363 61.2755 67.0388 60.8032 66.976C60.5798 66.9428 60.3549 66.9204 60.1293 66.9088C59.9127 66.9088 59.7307 66.8742 59.358 67.0107C58.9875 67.1472 58.8705 67.288 58.7123 67.4332C58.5483 67.5884 58.3914 67.7511 58.2422 67.9207C57.9193 68.276 57.5705 68.7007 57.226 69.1123C56.8815 69.524 56.5413 69.9205 56.2792 70.1957L56.1492 70.3278C56.0885 70.3018 56.0538 70.291 55.9823 70.2563C55.5569 70.0358 55.1378 69.8031 54.7257 69.5587C54.262 69.29 53.7853 69.0127 53.3607 68.7873C53.1635 68.6798 52.961 68.5821 52.754 68.4948C52.5525 68.4125 52.3965 68.3172 52 68.3172C51.6035 68.3172 51.4432 68.4125 51.2417 68.4948C51.0348 68.5841 50.8324 68.6831 50.635 68.7917C50.2103 69.017 49.738 69.2943 49.2743 69.5608C48.8107 69.8295 48.3578 70.0873 48.0177 70.2542C47.9462 70.291 47.9115 70.3018 47.853 70.3278C47.8053 70.2823 47.7772 70.2563 47.723 70.1978C47.4587 69.9205 47.1163 69.5262 46.774 69.1145C46.4273 68.7028 46.0807 68.276 45.7578 67.9207C45.6087 67.751 45.4518 67.5884 45.2877 67.4332C45.1295 67.288 45.0125 67.1472 44.642 67.0107C44.2693 66.8742 44.0873 66.9002 43.8707 66.9088C43.654 66.9088 43.4352 66.9435 43.199 66.976C42.7223 67.041 42.1828 67.1385 41.6585 67.2295C41.132 67.3227 40.6163 67.4093 40.2393 67.4505C40.1613 67.4505 40.131 67.4505 40.066 67.4722C40.0357 67.4115 40.0162 67.3833 39.9815 67.3032C39.8298 66.95 39.6413 66.4582 39.4572 65.9512C39.273 65.4463 39.0888 64.9263 38.9068 64.4778C38.8233 64.2685 38.7301 64.0631 38.6273 63.8625C38.5277 63.6675 38.467 63.4942 38.1658 63.2385C37.8647 62.9828 37.6827 62.9503 37.4768 62.8832C37.263 62.8164 37.0461 62.76 36.8268 62.7142C36.3567 62.6102 35.8193 62.5192 35.2928 62.4238C34.7663 62.3285 34.2528 62.2288 33.8845 62.14C33.8022 62.1183 33.7697 62.1053 33.7068 62.0837C33.6982 62.0143 33.6917 61.9753 33.6852 61.8887C33.6592 61.5052 33.657 60.9787 33.6548 60.437C33.6548 59.8975 33.6548 59.3493 33.6332 58.8683C33.6271 58.6402 33.6105 58.4124 33.5833 58.1858C33.5552 57.9713 33.5552 57.7915 33.358 57.4492C33.163 57.109 33.0048 57.0158 32.8337 56.8837C32.6537 56.7461 32.4672 56.6174 32.2747 56.498C31.8717 56.2402 31.3972 55.965 30.9335 55.6963C30.472 55.4233 30.0235 55.1547 29.7072 54.9402C29.6357 54.8925 29.6097 54.8687 29.5555 54.8275C29.5707 54.7603 29.5772 54.7192 29.601 54.6368C29.7072 54.2685 29.8827 53.768 30.0625 53.261C30.2445 52.754 30.4308 52.234 30.5738 51.7747C30.6475 51.545 30.7103 51.337 30.7558 51.1247C30.8013 50.9123 30.8642 50.739 30.7992 50.3533C30.732 49.9677 30.6128 49.8182 30.498 49.634C30.3761 49.4444 30.2452 49.2608 30.1058 49.0837C29.8133 48.7023 29.4602 48.282 29.1178 47.866C28.7777 47.4522 28.4462 47.0448 28.2208 46.735C28.1688 46.6635 28.1493 46.6288 28.1125 46.5703C28.1493 46.5118 28.1688 46.4772 28.2208 46.4057C28.4462 46.0958 28.7777 45.6863 29.1178 45.2725C29.4602 44.8565 29.8112 44.434 30.1058 44.0527C30.251 43.862 30.3832 43.6822 30.498 43.498C30.6128 43.3138 30.732 43.173 30.7992 42.7873C30.8663 42.4017 30.8013 42.2283 30.7558 42.0182C30.7055 41.7966 30.6448 41.5775 30.5738 41.3617C30.4287 40.9023 30.2445 40.3867 30.0625 39.8797C29.8955 39.4256 29.7416 38.9668 29.601 38.5038C29.5772 38.4193 29.5707 38.3825 29.5555 38.3153C29.6097 38.272 29.6357 38.2482 29.7072 38.2005C30.0213 37.9838 30.472 37.7173 30.9335 37.4465C31.3972 37.1757 31.8717 36.9005 32.2768 36.6448C32.4783 36.5148 32.6647 36.387 32.8337 36.2548C33.0048 36.1183 33.163 36.0273 33.358 35.6872C33.553 35.3448 33.553 35.1607 33.5833 34.9462C33.6115 34.7295 33.6245 34.5107 33.6332 34.268C33.6548 33.787 33.6548 33.2345 33.6548 32.695C33.6548 32.1533 33.6592 31.6268 33.6852 31.2433C33.6895 31.1567 33.6982 31.122 33.7068 31.0527C33.7718 31.031 33.8022 31.018 33.8845 30.9985C34.2528 30.9075 34.7663 30.8143 35.2928 30.7168C35.8193 30.6237 36.3567 30.5305 36.8247 30.4265C37.044 30.3792 37.2609 30.3214 37.4747 30.2532C37.6827 30.186 37.8647 30.1578 38.168 29.9022C38.467 29.6465 38.5277 29.471 38.6273 29.2803C38.727 29.0853 38.8158 28.8838 38.9068 28.6628C39.0888 28.2165 39.273 27.6965 39.4572 27.1895C39.6413 26.6825 39.8277 26.1863 39.9815 25.8353L40.0617 25.6663C40.1267 25.6663 40.1592 25.6663 40.2393 25.688C40.6163 25.727 41.132 25.8137 41.6585 25.9068C42.1828 26 42.7245 26.0975 43.1968 26.1603C43.4352 26.1928 43.654 26.2188 43.8707 26.2275C44.0873 26.2275 44.2693 26.2687 44.642 26.1322C45.0125 25.9957 45.1295 25.8548 45.2877 25.7075C45.4517 25.553 45.6086 25.391 45.7578 25.2222C46.0807 24.8647 46.4295 24.4422 46.774 24.0283C47.1185 23.6167 47.4587 23.2137 47.7208 22.9363C47.7772 22.8778 47.8075 22.8583 47.8508 22.8128H47.853ZM52 28.1623C41.8405 28.1623 33.5833 36.4195 33.5833 46.579C33.5833 56.7385 41.8405 64.9957 52 64.9957C62.1595 64.9957 70.4167 56.7385 70.4167 46.579C70.4167 36.4195 62.1595 28.1623 52 28.1623ZM52 30.2055C54.1505 30.2038 56.2802 30.6262 58.2672 31.4485C60.2543 32.2708 62.0597 33.4768 63.5801 34.9976C65.1005 36.5185 66.3061 38.3242 67.1279 40.3114C67.9496 42.2987 68.3715 44.4285 68.3692 46.579C68.3715 48.7293 67.9496 50.8589 67.1278 52.8459C66.306 54.8329 65.1003 56.6384 63.5798 58.1588C62.0594 59.6793 60.2539 60.885 58.2669 61.7068C56.2799 62.5286 54.1503 62.9504 52 62.9482C49.8497 62.9504 47.7201 62.5286 45.7331 61.7068C43.7461 60.885 41.9406 59.6793 40.4202 58.1588C38.8997 56.6384 37.694 54.8329 36.8722 52.8459C36.0504 50.8589 35.6286 48.7293 35.6308 46.579C35.6286 44.4285 36.0504 42.2987 36.8721 40.3114C37.6939 38.3242 38.8995 36.5185 40.4199 34.9976C41.9403 33.4768 43.7457 32.2708 45.7328 31.4485C47.7198 30.6262 49.8495 30.2038 52 30.2055ZM51.9502 36.2072C51.298 36.2072 51.0142 36.543 50.7975 36.7792C50.5881 37.0159 50.4037 37.2737 50.2472 37.5483C49.9113 38.1095 49.582 38.7833 49.2613 39.4658C48.9407 40.1483 48.6287 40.8395 48.3687 41.3617C48.2387 41.6217 48.1217 41.8448 48.035 41.9878C48.0177 42.016 48.009 42.0247 47.9917 42.0463C47.97 42.0463 47.9592 42.068 47.9288 42.068C47.7663 42.1092 47.5237 42.1547 47.2355 42.198C46.657 42.2933 45.9073 42.3843 45.1555 42.4862C44.408 42.588 43.6605 42.7028 43.0235 42.8588C42.7166 42.9272 42.4175 43.0266 42.1308 43.1557C41.8427 43.2922 41.4397 43.459 41.2425 44.0787C41.0453 44.6983 41.2728 45.0688 41.4288 45.3483C41.5848 45.6257 41.7755 45.8575 41.9922 46.1067C42.4212 46.5985 42.9628 47.1207 43.5153 47.6363C44.0678 48.1542 44.629 48.6633 45.0472 49.0707C45.2552 49.2743 45.4307 49.4542 45.539 49.5798C45.5563 49.6015 45.5585 49.6102 45.5715 49.6297C45.5715 49.6578 45.578 49.6687 45.5758 49.7012C45.5574 49.9384 45.5292 50.1748 45.4913 50.4097C45.4003 50.986 45.2573 51.7227 45.123 52.4658C44.9887 53.209 44.863 53.95 44.8153 54.6022C44.7893 54.9272 44.7828 55.2305 44.8218 55.5468C44.8652 55.8632 44.8977 56.2965 45.4285 56.6757C45.9572 57.0548 46.3797 56.9487 46.6938 56.888C47.0022 56.8202 47.3028 56.7207 47.5908 56.5912C48.1932 56.3355 48.8583 55.9845 49.5192 55.6162C50.1822 55.2522 50.8387 54.8773 51.3565 54.6065C51.6165 54.4722 51.8418 54.366 51.9957 54.3032C52.0282 54.2815 52.039 54.2815 52.0672 54.2815C52.3054 54.3789 52.5396 54.4858 52.7692 54.6022C53.2913 54.8665 53.9478 55.2305 54.6152 55.588C55.2825 55.9455 55.952 56.2965 56.5587 56.5457C56.862 56.6692 57.1437 56.7688 57.46 56.8273C57.7742 56.888 58.1967 56.9877 58.721 56.5998C59.2453 56.2142 59.28 55.7787 59.3168 55.4623C59.3481 55.1496 59.3467 54.8344 59.3125 54.522C59.2562 53.872 59.1175 53.1267 58.9745 52.3857C58.8315 51.6425 58.682 50.908 58.5845 50.3317C58.5428 50.099 58.5102 49.8649 58.487 49.6297V49.5625C58.6516 49.3641 58.8251 49.1732 59.007 48.9905C59.4187 48.5788 59.9777 48.0632 60.5237 47.5388C61.0697 47.0188 61.607 46.4945 62.0295 45.9962C62.2418 45.7448 62.426 45.5043 62.5798 45.2248C62.7315 44.9432 62.959 44.577 62.7532 43.9595C62.5473 43.342 62.1422 43.1752 61.8518 43.0408C61.562 42.9142 61.26 42.8176 60.9505 42.7527C60.2451 42.6049 59.5329 42.4921 58.8163 42.4147C58.0667 42.3215 57.3127 42.237 56.7363 42.1547C56.5014 42.1206 56.268 42.0773 56.0365 42.0247C56.0083 42.0247 56.0018 42.003 55.978 42.003C55.9607 41.9813 55.9498 41.9727 55.9303 41.9445C55.8097 41.7431 55.697 41.5371 55.5923 41.327C55.3258 40.807 55.003 40.1245 54.6737 39.4442C54.3703 38.7924 54.0348 38.156 53.6683 37.5375C53.5074 37.2645 53.3186 37.009 53.105 36.7748C52.884 36.5408 52.6002 36.2115 51.9502 36.2158V36.2072ZM51.9653 38.9372C52.1993 39.3423 52.455 39.819 52.7237 40.3758C53.0443 41.0345 53.3628 41.7257 53.6597 42.3042C53.807 42.5945 53.9478 42.8545 54.093 43.0885C54.2425 43.3225 54.3378 43.5218 54.691 43.7732C55.0463 44.0267 55.2652 44.0527 55.5338 44.1155C55.8025 44.1805 56.0972 44.2303 56.4178 44.278C57.0635 44.3733 57.8218 44.4578 58.5498 44.5488C59.163 44.6247 59.696 44.7113 60.1532 44.8023C59.8412 45.149 59.4663 45.539 59.02 45.9658C58.4913 46.4728 57.9323 46.9907 57.4708 47.45C57.2412 47.6818 57.0375 47.8942 56.8642 48.1065C56.6843 48.3188 56.5197 48.4705 56.3875 48.8865C56.2575 49.2982 56.3008 49.5148 56.3247 49.79C56.3463 50.0652 56.3897 50.3598 56.4438 50.6783C56.5522 51.3218 56.7103 52.065 56.849 52.7865C56.966 53.3932 57.0483 53.9262 57.1025 54.3898C56.6081 54.1674 56.1217 53.9275 55.6443 53.6705C54.9943 53.3238 54.3292 52.9555 53.7485 52.6608C53.4833 52.5234 53.2122 52.3976 52.936 52.2838C52.6782 52.1798 52.481 52.0715 52.0477 52.0758C51.61 52.0758 51.4193 52.1907 51.1615 52.2968C50.908 52.403 50.6415 52.5352 50.3533 52.6868C49.777 52.9858 49.114 53.3628 48.4705 53.7182C47.9288 54.0172 47.4435 54.2598 47.0188 54.4548C47.0687 53.989 47.1488 53.4538 47.2572 52.8472C47.3872 52.1257 47.5323 51.3782 47.632 50.7347C47.684 50.414 47.7187 50.1215 47.7403 49.8463C47.7577 49.5712 47.7988 49.3523 47.6623 48.9407C47.5258 48.529 47.3633 48.3795 47.1857 48.1693C46.9872 47.9437 46.779 47.7268 46.5617 47.5193C46.0958 47.0643 45.5325 46.5552 44.9973 46.0547C44.6009 45.685 44.2179 45.3013 43.849 44.9042C44.3083 44.8088 44.8413 44.7092 45.4523 44.629C46.1803 44.5293 46.9343 44.4405 47.5778 44.3365C47.8985 44.2845 48.191 44.2282 48.4575 44.1632C48.7262 44.096 48.9493 44.07 49.3003 43.8122C49.6513 43.5522 49.7402 43.3528 49.8853 43.1188C50.0283 42.8805 50.167 42.6183 50.3122 42.3258C50.6003 41.743 50.9145 41.0518 51.2265 40.3888C51.4865 39.8298 51.7378 39.3445 51.9653 38.9372ZM38.3587 68.8805C38.4583 69.0582 38.5602 69.2402 38.9155 69.4482C39.3207 69.6843 39.5482 69.6518 39.7778 69.6583C40.0097 69.6583 40.235 69.6367 40.4777 69.6215C40.9608 69.5695 41.5003 69.4742 42.0333 69.3788C42.5685 69.2857 43.0928 69.1925 43.4893 69.1405C43.654 69.1188 43.7732 69.1058 43.875 69.0972C43.9487 69.1687 44.0353 69.2553 44.1502 69.3788C44.421 69.68 44.7655 70.0938 45.1143 70.5098L45.2877 70.7092L40.9803 78.1733L40.0032 74.5247C39.9225 74.2271 39.7271 73.9738 39.4598 73.8202C39.1925 73.6667 38.8752 73.6255 38.5775 73.7057L34.9592 74.6742L38.3565 68.8805H38.3587ZM65.6348 68.9022L69.0278 74.6872L65.4095 73.7165C65.1116 73.6378 64.7946 73.6806 64.5281 73.8353C64.2617 73.9901 64.0675 74.2442 63.9882 74.542L63.011 78.182L58.7037 70.7265C58.7643 70.6528 58.825 70.5922 58.8857 70.5185C59.2323 70.1003 59.579 69.6887 59.8498 69.3875C59.9382 69.2904 60.0299 69.1964 60.125 69.1058C60.2268 69.1058 60.346 69.1318 60.5107 69.1492C60.9072 69.2012 61.4315 69.2943 61.9667 69.3875C62.4997 69.4807 63.0392 69.576 63.5223 69.6302C63.765 69.6562 63.9903 69.6735 64.2222 69.667C64.4518 69.667 64.6793 69.693 65.0845 69.4568C65.3208 69.3332 65.5131 69.1395 65.6348 68.9022Z" fill="#F24949"/>
</g>
<defs>
<clipPath id="clip0_74_710">
<rect width="104" height="104" fill="white"/>
</clipPath>
</defs>
</svg>
